# xmcd
# Track frame offsets:
# 150
# 19131
# 34182
# 46516
# 71038
# 89655
# 108442
# 127707
# 138710
# 151998
#
# Disc length: 2330 seconds
# Revision: 0
# Processed by: cddbd v1.4PL0 Copyright (c) Steve Scherf et al.
# Submitted via: VisiTrax 2.9.5.181 - For more info visit www.synapsa.com
#
DISCID=8009180a
DTITLE=Garth Brooks - Fresh Horses
DYEAR=1900
DGENRE=Country
TTITLE0=The Old stuff
TTITLE1=Cowboys Ans Angels
TTITLE2=the Fever
TTITLE3=That Ol' Wind
TTITLE4=Rollin'
TTITLE5=The Change
TTITLE6=The Beaches Of Cheyenne
TTITLE7=It's Midnight Cinderella
TTITLE8=She's Every Woman
TTITLE9=Ireland
EXTD=
EXTT0=
EXTT1=
EXTT2=
EXTT3=
EXTT4=
EXTT5=
EXTT6=
EXTT7=
EXTT8=
EXTT9=
PLAYORDER=
